<svg width="119" height="19" fill="none" xmlns="http://www.w3.org/2000/svg"><g clip-path="url(#clip0_361_678)"><path fill-rule="evenodd" clip-rule="evenodd" d="M9.813 14.055l-5.768 3.78 1.812-6.654L.48 6.864l6.888-.333L9.812.083l2.445 6.448 6.888.333-5.377 4.317 1.812 6.653-5.768-3.779z" fill="#FFC54F"/></g><g clip-path="url(#clip1_361_678)"><path fill-rule="evenodd" clip-rule="evenodd" d="M34.438 14.055l-5.768 3.78 1.812-6.654-5.377-4.317 6.888-.333L34.438.083l2.444 6.448 6.888.333-5.377 4.317 1.812 6.653-5.767-3.779z" fill="#FFC54F"/></g><g clip-path="url(#clip2_361_678)"><path fill-rule="evenodd" clip-rule="evenodd" d="M59.063 14.055l-5.768 3.78 1.812-6.654-5.377-4.317 6.888-.333L59.062.083l2.445 6.448 6.888.333-5.377 4.317 1.812 6.653-5.767-3.779z" fill="#FFC54F"/></g><g clip-path="url(#clip3_361_678)"><path fill-rule="evenodd" clip-rule="evenodd" d="M83.688 14.055l-5.768 3.78 1.812-6.654-5.377-4.317 6.888-.333L83.688.083l2.444 6.448 6.888.333-5.377 4.317 1.812 6.653-5.767-3.779z" fill="#FFC54F"/></g><g clip-path="url(#clip4_361_678)"><path fill-rule="evenodd" clip-rule="evenodd" d="M108.312 14.055l-5.767 3.78 1.812-6.654-5.377-4.317 6.888-.333 2.444-6.448 2.445 6.448 6.888.333-5.377 4.317 1.812 6.653-5.768-3.779z" fill="#FFC54F"/></g><defs><clipPath id="clip0_361_678"><path fill="#fff" transform="translate(0 .083)" d="M0 0h19.625v17.99H0z"/></clipPath><clipPath id="clip1_361_678"><path fill="#fff" transform="translate(24.625 .083)" d="M0 0h19.625v17.99H0z"/></clipPath><clipPath id="clip2_361_678"><path fill="#fff" transform="translate(49.25 .083)" d="M0 0h19.625v17.99H0z"/></clipPath><clipPath id="clip3_361_678"><path fill="#fff" transform="translate(73.875 .083)" d="M0 0h19.625v17.99H0z"/></clipPath><clipPath id="clip4_361_678"><path fill="#fff" transform="translate(98.5 .083)" d="M0 0h19.625v17.99H0z"/></clipPath></defs></svg>