<svg width="20" height="20" fill="none" xmlns="http://www.w3.org/2000/svg"><path d="M15.359 5.901a2.889 2.889 0 001.248-1.672 6.522 6.522 0 01-1.828.708A2.646 2.646 0 0012.71 4c-.811 0-1.496.3-2.056.886-.556.59-.836 1.305-.836 2.14 0 .255.03.482.09.674-2.392-.086-4.372-1.135-5.932-3.153a3.17 3.17 0 00-.397 1.517c0 1.069.427 1.916 1.28 2.538a3.052 3.052 0 01-1.28-.386c0 .764.213 1.401.638 1.963.427.555.975.91 1.645 1.06a2.912 2.912 0 01-.761.098c-.243 0-.415-.022-.517-.069a2.907 2.907 0 001.004 1.514 2.744 2.744 0 001.674.61 5.412 5.412 0 01-3.56 1.284c-.329 0-.561-.005-.702-.031C4.32 15.55 5.789 16 7.414 16c1.664 0 3.134-.445 4.413-1.336 1.28-.886 2.224-1.98 2.83-3.266a9.263 9.263 0 00.912-4.021v-.385A6.265 6.265 0 0017 5.414a6.072 6.072 0 01-1.641.487z" fill="#75757F"/></svg>